<svg xmlns="http://www.w3.org/2000/svg" xmlns:v="https://svgstorm.com"
viewBox = "0 0 362 331"
width="362"
height="331">
<g fill="None" fill-opacity="0.0" stroke="#000000" stroke-opacity="0.00" stroke-width="0.3"><path d="
M 0.00 49.00 
C 4.66 25.34 25.36 4.57 49.00 0.00
L 0.00 0.00
L 0.00 49.00 Z"/>
</g>
<g fill="None" fill-opacity="0.0" stroke="#FD885A" stroke-opacity="1.00" stroke-width="0.3"><path d="
M 0.00 49.00 
L 0.00 50.00
C 1.47 51.33 1.71 55.74 0.00 57.00
L 0.00 282.00
C 4.58 305.71 25.41 326.36 49.00 331.00
L 313.00 331.00
C 336.70 326.41 357.42 305.63 362.00 282.00
L 362.00 49.00
C 357.42 25.29 336.59 4.65 313.00 0.00
L 49.00 0.00
C 25.36 4.57 4.66 25.34 0.00 49.00
M 241.00 39.00 
C 234.24 45.37 227.29 51.25 220.00 57.00
C 207.92 66.54 195.39 75.30 183.00 84.00
C 182.53 72.63 188.37 60.71 190.00 49.00
C 185.80 52.05 180.89 53.59 176.00 55.00
C 177.07 49.05 183.39 45.30 188.23 42.23 C 193.07 39.16 196.85 32.00 203.00 32.00
C 201.35 40.24 200.22 48.62 199.00 57.00
C 214.84 51.06 228.52 38.42 245.00 34.00
C 245.84 36.81 242.71 37.63 241.00 39.00
M 178.00 85.00 
C 180.97 87.72 184.37 90.29 187.00 93.00
C 194.02 100.23 186.26 104.75 181.00 110.00
C 168.35 101.18 159.09 87.77 147.00 78.00
C 150.71 73.26 158.16 65.16 163.75 70.25 C 169.33 75.35 173.00 80.02 178.00 85.00
M 235.00 185.00 
C 237.53 185.21 240.46 190.46 242.00 192.00
C 250.73 199.46 258.29 208.62 267.00 216.00
C 261.87 224.22 253.08 231.14 246.00 238.00
C 240.38 243.62 235.03 249.85 229.00 255.00
C 210.23 271.04 194.04 285.66 168.93 288.93 C 143.81 292.19 115.30 286.22 96.25 269.75 C 77.19 253.28 64.36 233.08 63.00 208.00
C 62.11 202.54 62.48 196.34 63.00 191.00
C 63.00 182.33 65.09 171.94 68.32 164.32 C 71.55 156.70 74.87 149.19 79.92 142.92 C 84.97 136.65 90.05 131.25 95.75 125.75 C 101.45 120.26 107.42 115.61 112.75 109.75 C 118.08 103.89 123.98 98.65 129.70 93.70 C 135.41 88.75 141.09 78.83 147.25 85.75 C 153.40 92.68 157.15 95.86 163.25 101.75 C 169.35 107.64 177.27 113.62 170.25 120.25 C 163.22 126.88 159.53 130.31 153.25 136.25 C 146.97 142.18 142.42 146.70 136.75 152.75 C 131.09 158.80 125.41 162.72 120.25 169.25 C 115.09 175.77 111.88 184.48 111.01 193.01 C 110.13 201.54 111.96 212.58 115.92 220.08 C 119.89 227.57 125.11 232.04 132.23 236.77 C 139.35 241.50 151.28 242.44 160.00 242.00 C 168.72 241.56 176.71 236.92 183.25 232.25 C 189.78 227.57 195.15 221.79 200.75 216.75 C 206.36 211.71 211.76 204.07 217.25 200.25 C 222.73 196.43 228.64 184.47 235.00 185.00
M 246.00 161.00 
C 246.00 161.50 246.00 162.00 246.00 162.00
C 244.57 164.92 235.19 175.57 232.00 176.00
C 230.67 176.18 230.70 175.81 230.00 175.00
C 227.67 172.32 229.00 164.70 229.00 161.00
C 229.00 154.32 228.12 145.46 229.00 139.00 C 229.88 132.54 226.34 121.94 230.00 117.00
C 230.00 116.50 230.00 116.00 230.00 116.00
C 231.67 114.27 247.35 112.32 246.97 118.03 C 246.60 123.73 247.90 134.03 247.00 140.00 C 246.10 145.97 249.45 156.34 246.00 161.00
M 285.00 138.00 
C 284.63 142.90 283.77 147.47 282.00 152.00
C 297.38 146.96 309.70 135.02 325.00 130.00
C 309.73 149.82 286.72 166.08 266.00 180.00
C 267.85 169.21 271.82 158.98 273.00 148.00
C 266.64 149.12 261.32 153.50 255.00 155.00
C 262.53 143.85 275.29 136.46 285.00 127.00
C 289.13 126.30 285.48 135.03 285.00 138.00
M 218.00 136.00 
C 218.50 136.00 219.00 136.00 219.00 136.00
C 219.99 135.88 221.01 136.09 222.00 136.00
C 223.12 148.72 220.51 163.49 222.00 176.00 C 223.49 188.51 213.85 193.22 206.00 201.00
C 204.13 199.86 205.39 196.87 205.00 195.00
C 202.28 178.93 202.82 157.04 205.00 141.00
C 205.00 140.15 204.57 137.71 205.00 137.00
C 205.78 133.36 216.20 134.67 218.00 136.00
M 197.00 164.00 
C 197.63 175.68 196.16 190.65 197.00 202.00 C 197.84 213.35 188.11 218.91 180.00 224.00
C 180.00 204.00 180.00 184.00 180.00 164.00
C 185.67 164.00 191.33 164.00 197.00 164.00
M 264.00 181.00 
C 267.95 184.38 271.42 188.38 275.00 192.00
C 277.58 194.22 283.56 197.91 283.00 202.00
C 282.65 204.56 276.06 209.78 274.00 211.00
C 271.26 212.62 271.75 212.62 269.00 211.00
C 265.35 208.85 262.86 204.86 260.00 202.00
C 252.34 195.46 245.65 187.44 238.00 181.00
C 240.20 177.86 246.01 168.28 251.03 169.03 C 256.05 169.77 259.07 179.65 264.00 181.00
M 172.00 187.00 
C 175.64 190.64 172.56 204.67 173.00 210.00 C 173.44 215.33 174.95 228.59 171.00 232.00
C 167.68 234.87 161.07 233.94 157.00 235.00
C 156.76 235.06 156.33 236.01 156.00 236.00
C 152.37 235.94 154.12 224.74 154.00 221.00 C 153.88 217.26 153.66 206.83 154.00 203.00 C 154.34 199.17 152.40 188.18 155.26 186.26 C 158.11 184.33 170.32 185.32 172.00 187.00
M 147.00 201.00 
C 149.85 205.03 147.64 213.84 148.00 219.00 C 148.36 224.16 149.63 233.93 145.00 234.00
C 140.91 234.06 138.06 232.04 135.00 230.00
C 131.19 227.46 129.49 223.28 131.00 218.00 C 132.51 212.72 128.68 205.80 131.00 201.00
C 132.79 197.30 144.97 198.13 147.00 201.00 Z"/>
</g>
<g fill="None" fill-opacity="0.0" stroke="#000000" stroke-opacity="0.00" stroke-width="0.3"><path d="
M 362.00 49.00 
L 362.00 0.00
L 313.00 0.00
C 336.59 4.65 357.42 25.29 362.00 49.00 Z"/>
</g>
<g fill="None" fill-opacity="0.0" stroke="#010000" stroke-opacity="1.00" stroke-width="0.3"><path d="
M 220.00 57.00 
C 226.79 50.72 233.78 44.82 241.00 39.00
C 242.71 37.63 245.84 36.81 245.00 34.00
C 228.52 38.42 214.84 51.06 199.00 57.00
C 200.22 48.62 201.35 40.24 203.00 32.00
C 196.85 32.00 193.07 39.16 188.23 42.23 C 183.39 45.30 177.07 49.05 176.00 55.00
C 180.89 53.59 185.80 52.05 190.00 49.00
C 188.37 60.71 182.53 72.63 183.00 84.00
C 195.39 75.30 207.92 66.54 220.00 57.00 Z"/>
</g>
<g fill="None" fill-opacity="0.0" stroke="#754F40" stroke-opacity="1.00" stroke-width="0.3"><path d="
M 220.00 57.00 
C 227.29 51.25 234.24 45.37 241.00 39.00
C 233.78 44.82 226.79 50.72 220.00 57.00 Z"/>
</g>
<g fill="None" fill-opacity="0.0" stroke="#FF885A" stroke-opacity="0.62" stroke-width="0.3"><path d="
M 0.00 57.00 
C 1.71 55.74 1.47 51.33 0.00 50.00
L 0.00 57.00 Z"/>
</g>
<g fill="None" fill-opacity="0.0" stroke="#000000" stroke-opacity="1.00" stroke-width="0.3"><path d="
M 187.00 93.00 
C 185.06 91.49 180.72 87.91 178.00 85.00
C 173.00 80.02 169.33 75.35 163.75 70.25 C 158.16 65.16 150.71 73.26 147.00 78.00
C 159.09 87.77 168.35 101.18 181.00 110.00
C 186.26 104.75 194.02 100.23 187.00 93.00 Z"/>
</g>
<g fill="None" fill-opacity="0.0" stroke="#000000" stroke-opacity="1.00" stroke-width="0.3"><path d="
M 63.00 191.00 
C 63.00 196.64 62.69 202.37 63.00 208.00
C 64.36 233.08 77.19 253.28 96.25 269.75 C 115.30 286.22 143.81 292.19 168.93 288.93 C 194.04 285.66 210.23 271.04 229.00 255.00
C 234.62 249.38 239.97 243.15 246.00 238.00
C 253.08 231.14 261.87 224.22 267.00 216.00
C 258.29 208.62 250.73 199.46 242.00 192.00
C 239.55 189.91 236.63 187.81 235.00 185.00
C 228.64 184.47 222.73 196.43 217.25 200.25 C 211.76 204.07 206.36 211.71 200.75 216.75 C 195.15 221.79 189.78 227.57 183.25 232.25 C 176.71 236.92 168.72 241.56 160.00 242.00 C 151.28 242.44 139.35 241.50 132.23 236.77 C 125.11 232.04 119.89 227.57 115.92 220.08 C 111.96 212.58 110.13 201.54 111.01 193.01 C 111.88 184.48 115.09 175.77 120.25 169.25 C 125.41 162.72 131.09 158.80 136.75 152.75 C 142.42 146.70 146.97 142.18 153.25 136.25 C 159.53 130.31 163.22 126.88 170.25 120.25 C 177.27 113.62 169.35 107.64 163.25 101.75 C 157.15 95.86 153.40 92.68 147.25 85.75 C 141.09 78.83 135.41 88.75 129.70 93.70 C 123.98 98.65 118.08 103.89 112.75 109.75 C 107.42 115.61 101.45 120.26 95.75 125.75 C 90.05 131.25 84.97 136.65 79.92 142.92 C 74.87 149.19 71.55 156.70 68.32 164.32 C 65.09 171.94 63.00 182.33 63.00 191.00 Z"/>
</g>
<g fill="None" fill-opacity="0.0" stroke="#463732" stroke-opacity="1.00" stroke-width="0.3"><path d="
M 187.00 93.00 
C 184.37 90.29 180.97 87.72 178.00 85.00
C 180.72 87.91 185.06 91.49 187.00 93.00 Z"/>
</g>
<g fill="None" fill-opacity="0.0" stroke="#7A5445" stroke-opacity="1.00" stroke-width="0.3"><path d="
M 230.00 116.00 
C 235.29 115.52 240.70 116.36 246.00 116.00
C 246.00 131.00 246.00 146.00 246.00 161.00
C 249.45 156.34 246.10 145.97 247.00 140.00 C 247.90 134.03 246.60 123.73 246.97 118.03 C 247.35 112.32 231.67 114.27 230.00 116.00 Z"/>
</g>
<g fill="None" fill-opacity="0.0" stroke="#000000" stroke-opacity="1.00" stroke-width="0.3"><path d="
M 230.00 117.00 
C 230.00 131.67 230.00 146.33 230.00 161.00
C 230.00 164.73 228.64 171.58 230.00 175.00
C 230.70 175.81 230.67 176.18 232.00 176.00
C 236.48 174.48 241.80 164.93 246.00 162.00
C 246.00 162.00 246.00 161.50 246.00 161.00
C 246.00 146.00 246.00 131.00 246.00 116.00
C 240.70 116.36 235.29 115.52 230.00 116.00
C 230.00 116.00 230.00 116.50 230.00 117.00 Z"/>
</g>
<g fill="None" fill-opacity="0.0" stroke="#8A6555" stroke-opacity="1.00" stroke-width="0.3"><path d="
M 229.00 161.00 
C 229.00 160.96 230.00 161.00 230.00 161.00
C 230.00 146.33 230.00 131.67 230.00 117.00
C 226.34 121.94 229.88 132.54 229.00 139.00 C 228.12 145.46 229.00 154.32 229.00 161.00 Z"/>
</g>
<g fill="None" fill-opacity="0.0" stroke="#8F5B47" stroke-opacity="1.00" stroke-width="0.3"><path d="
M 285.00 127.00 
C 286.19 129.81 285.28 134.34 285.00 138.00
C 285.48 135.03 289.13 126.30 285.00 127.00 Z"/>
</g>
<g fill="None" fill-opacity="0.0" stroke="#000000" stroke-opacity="1.00" stroke-width="0.3"><path d="
M 285.00 138.00 
C 285.28 134.34 286.19 129.81 285.00 127.00
C 275.29 136.46 262.53 143.85 255.00 155.00
C 261.32 153.50 266.64 149.12 273.00 148.00
C 271.82 158.98 267.85 169.21 266.00 180.00
C 286.72 166.08 309.73 149.82 325.00 130.00
C 309.70 135.02 297.38 146.96 282.00 152.00
C 283.77 147.47 284.63 142.90 285.00 138.00 Z"/>
</g>
<g fill="None" fill-opacity="0.0" stroke="#AD694E" stroke-opacity="1.00" stroke-width="0.3"><path d="
M 205.00 137.00 
C 205.13 136.78 206.00 137.00 206.00 137.00
C 208.70 135.00 214.45 136.00 218.00 136.00
C 216.20 134.67 205.78 133.36 205.00 137.00 Z"/>
</g>
<g fill="None" fill-opacity="0.0" stroke="#3A3431" stroke-opacity="1.00" stroke-width="0.3"><path d="
M 206.00 137.00 
C 209.32 137.00 216.79 138.30 219.00 136.00
C 219.00 136.00 218.50 136.00 218.00 136.00
C 214.45 136.00 208.70 135.00 206.00 137.00 Z"/>
</g>
<g fill="None" fill-opacity="0.0" stroke="#000000" stroke-opacity="1.00" stroke-width="0.3"><path d="
M 206.00 137.00 
C 206.00 137.00 205.13 136.78 205.00 137.00
C 204.57 137.71 205.00 140.15 205.00 141.00
C 205.00 158.89 203.93 177.15 205.00 195.00
C 205.39 196.87 204.13 199.86 206.00 201.00
C 213.85 193.22 223.49 188.51 222.00 176.00 C 220.51 163.49 223.12 148.72 222.00 136.00
C 221.01 136.09 219.99 135.88 219.00 136.00
C 216.79 138.30 209.32 137.00 206.00 137.00 Z"/>
</g>
<g fill="None" fill-opacity="0.0" stroke="#745B52" stroke-opacity="1.00" stroke-width="0.3"><path d="
M 205.00 195.00 
C 203.93 177.15 205.00 158.89 205.00 141.00
C 202.82 157.04 202.28 178.93 205.00 195.00 Z"/>
</g>
<g fill="None" fill-opacity="0.0" stroke="#604C43" stroke-opacity="1.00" stroke-width="0.3"><path d="
M 230.00 175.00 
C 228.64 171.58 230.00 164.73 230.00 161.00
C 230.00 161.00 229.00 160.96 229.00 161.00
C 229.00 164.70 227.67 172.32 230.00 175.00 Z"/>
</g>
<g fill="None" fill-opacity="0.0" stroke="#78584B" stroke-opacity="1.00" stroke-width="0.3"><path d="
M 232.00 176.00 
C 235.19 175.57 244.57 164.92 246.00 162.00
C 241.80 164.93 236.48 174.48 232.00 176.00 Z"/>
</g>
<g fill="None" fill-opacity="0.0" stroke="#000000" stroke-opacity="1.00" stroke-width="0.3"><path d="
M 197.00 164.00 
C 191.33 164.00 185.67 164.00 180.00 164.00
C 180.00 184.00 180.00 204.00 180.00 224.00
C 188.11 218.91 197.84 213.35 197.00 202.00 C 196.16 190.65 197.63 175.68 197.00 164.00 Z"/>
</g>
<g fill="None" fill-opacity="0.0" stroke="#000000" stroke-opacity="1.00" stroke-width="0.3"><path d="
M 260.00 202.00 
C 263.00 204.57 265.96 208.83 269.00 211.00
C 271.75 212.62 271.26 212.62 274.00 211.00
C 275.22 210.12 282.77 203.06 283.00 202.00
C 283.56 197.91 277.58 194.22 275.00 192.00
C 271.07 188.61 267.60 184.60 264.00 181.00
C 259.07 179.65 256.05 169.77 251.03 169.03 C 246.01 168.28 240.20 177.86 238.00 181.00
C 245.65 187.44 252.34 195.46 260.00 202.00 Z"/>
</g>
<g fill="None" fill-opacity="0.0" stroke="#836053" stroke-opacity="1.00" stroke-width="0.3"><path d="
M 275.00 192.00 
C 271.42 188.38 267.95 184.38 264.00 181.00
C 267.60 184.60 271.07 188.61 275.00 192.00 Z"/>
</g>
<g fill="None" fill-opacity="0.0" stroke="#784F3F" stroke-opacity="1.00" stroke-width="0.3"><path d="
M 242.00 192.00 
C 240.46 190.46 237.53 185.21 235.00 185.00
C 236.63 187.81 239.55 189.91 242.00 192.00 Z"/>
</g>
<g fill="None" fill-opacity="0.0" stroke="#CE724E" stroke-opacity="1.00" stroke-width="0.3"><path d="
M 156.00 236.00 
C 153.19 234.01 155.51 227.26 155.00 224.00 C 154.49 220.74 155.00 214.53 155.00 211.00
C 155.00 207.56 154.49 202.25 155.00 199.00 C 155.51 195.75 153.32 188.88 156.00 187.00
C 159.58 184.49 167.98 188.88 172.00 187.00
C 170.32 185.32 158.11 184.33 155.26 186.26 C 152.40 188.18 154.34 199.17 154.00 203.00 C 153.66 206.83 153.88 217.26 154.00 221.00 C 154.12 224.74 152.37 235.94 156.00 236.00 Z"/>
</g>
<g fill="None" fill-opacity="0.0" stroke="#524A47" stroke-opacity="1.00" stroke-width="0.3"><path d="
M 155.00 211.00 
C 155.00 210.96 156.00 211.00 156.00 211.00
C 156.00 203.00 156.00 195.00 156.00 187.00
C 153.32 188.88 155.51 195.75 155.00 199.00 C 154.49 202.25 155.00 207.56 155.00 211.00 Z"/>
</g>
<g fill="None" fill-opacity="0.0" stroke="#000000" stroke-opacity="1.00" stroke-width="0.3"><path d="
M 156.00 211.00 
C 156.00 218.72 154.95 228.14 157.00 235.00
C 161.07 233.94 167.68 234.87 171.00 232.00
C 175.26 226.87 170.54 216.50 172.00 210.00 C 173.46 203.50 170.91 193.79 172.00 187.00
C 167.98 188.88 159.58 184.49 156.00 187.00
C 156.00 195.00 156.00 203.00 156.00 211.00 Z"/>
</g>
<g fill="None" fill-opacity="0.0" stroke="#755244" stroke-opacity="1.00" stroke-width="0.3"><path d="
M 171.00 232.00 
C 174.95 228.59 173.44 215.33 173.00 210.00 C 172.56 204.67 175.64 190.64 172.00 187.00
C 170.91 193.79 173.46 203.50 172.00 210.00 C 170.54 216.50 175.26 226.87 171.00 232.00 Z"/>
</g>
<g fill="None" fill-opacity="0.0" stroke="#5B4C45" stroke-opacity="1.00" stroke-width="0.3"><path d="
M 63.00 208.00 
C 62.69 202.37 63.00 196.64 63.00 191.00
C 62.48 196.34 62.11 202.54 63.00 208.00 Z"/>
</g>
<g fill="None" fill-opacity="0.0" stroke="#000000" stroke-opacity="1.00" stroke-width="0.3"><path d="
M 131.00 201.00 
C 129.76 204.05 133.34 211.44 132.00 216.00 C 130.66 220.56 131.78 227.16 135.00 230.00
C 138.06 232.04 140.91 234.06 145.00 234.00
C 148.28 232.65 147.66 223.25 147.00 219.00 C 146.34 214.75 148.93 204.99 147.00 201.00
C 144.97 198.13 132.79 197.30 131.00 201.00 Z"/>
</g>
<g fill="None" fill-opacity="0.0" stroke="#35302F" stroke-opacity="1.00" stroke-width="0.3"><path d="
M 135.00 230.00 
C 131.78 227.16 130.66 220.56 132.00 216.00 C 133.34 211.44 129.76 204.05 131.00 201.00
C 128.68 205.80 132.51 212.72 131.00 218.00 C 129.49 223.28 131.19 227.46 135.00 230.00 Z"/>
</g>
<g fill="None" fill-opacity="0.0" stroke="#66524A" stroke-opacity="1.00" stroke-width="0.3"><path d="
M 145.00 234.00 
C 149.63 233.93 148.36 224.16 148.00 219.00 C 147.64 213.84 149.85 205.03 147.00 201.00
C 148.93 204.99 146.34 214.75 147.00 219.00 C 147.66 223.25 148.28 232.65 145.00 234.00 Z"/>
</g>
<g fill="None" fill-opacity="0.0" stroke="#66554E" stroke-opacity="1.00" stroke-width="0.3"><path d="
M 269.00 211.00 
C 265.96 208.83 263.00 204.57 260.00 202.00
C 262.86 204.86 265.35 208.85 269.00 211.00 Z"/>
</g>
<g fill="None" fill-opacity="0.0" stroke="#5D4E47" stroke-opacity="1.00" stroke-width="0.3"><path d="
M 274.00 211.00 
C 276.06 209.78 282.65 204.56 283.00 202.00
C 282.77 203.06 275.22 210.12 274.00 211.00 Z"/>
</g>
<g fill="None" fill-opacity="0.0" stroke="#755D54" stroke-opacity="1.00" stroke-width="0.3"><path d="
M 156.00 236.00 
C 156.33 236.01 156.76 235.06 157.00 235.00
C 154.95 228.14 156.00 218.72 156.00 211.00
C 156.00 211.00 155.00 210.96 155.00 211.00
C 155.00 214.53 154.49 220.74 155.00 224.00 C 155.51 227.26 153.19 234.01 156.00 236.00 Z"/>
</g>
<g fill="None" fill-opacity="0.0" stroke="#96624E" stroke-opacity="1.00" stroke-width="0.3"><path d="
M 229.00 255.00 
C 235.03 249.85 240.38 243.62 246.00 238.00
C 239.97 243.15 234.62 249.38 229.00 255.00 Z"/>
</g>
<g fill="None" fill-opacity="0.0" stroke="#000000" stroke-opacity="0.00" stroke-width="0.3"><path d="
M 0.00 331.00 
L 49.00 331.00
C 25.41 326.36 4.58 305.71 0.00 282.00
L 0.00 331.00 Z"/>
</g>
<g fill="None" fill-opacity="0.0" stroke="#000000" stroke-opacity="0.00" stroke-width="0.3"><path d="
M 313.00 331.00 
L 362.00 331.00
L 362.00 282.00
C 357.42 305.63 336.70 326.41 313.00 331.00 Z"/>
</g>
<g fill="#000000" fill-opacity="0.00" stroke="None">
<path d="
M 0.00 49.00 
C 4.66 25.34 25.36 4.57 49.00 0.00
L 0.00 0.00
L 0.00 49.00 Z"/>
</g>
<g fill="#FD885A" fill-opacity="1.00" stroke="None">
<path d="
M 0.00 49.00 
L 0.00 50.00
C 1.47 51.33 1.71 55.74 0.00 57.00
L 0.00 282.00
C 4.58 305.71 25.41 326.36 49.00 331.00
L 313.00 331.00
C 336.70 326.41 357.42 305.63 362.00 282.00
L 362.00 49.00
C 357.42 25.29 336.59 4.65 313.00 0.00
L 49.00 0.00
C 25.36 4.57 4.66 25.34 0.00 49.00
M 241.00 39.00 
C 234.24 45.37 227.29 51.25 220.00 57.00
C 207.92 66.54 195.39 75.30 183.00 84.00
C 182.53 72.63 188.37 60.71 190.00 49.00
C 185.80 52.05 180.89 53.59 176.00 55.00
C 177.07 49.05 183.39 45.30 188.23 42.23 C 193.07 39.16 196.85 32.00 203.00 32.00
C 201.35 40.24 200.22 48.62 199.00 57.00
C 214.84 51.06 228.52 38.42 245.00 34.00
C 245.84 36.81 242.71 37.63 241.00 39.00
M 178.00 85.00 
C 180.97 87.72 184.37 90.29 187.00 93.00
C 194.02 100.23 186.26 104.75 181.00 110.00
C 168.35 101.18 159.09 87.77 147.00 78.00
C 150.71 73.26 158.16 65.16 163.75 70.25 C 169.33 75.35 173.00 80.02 178.00 85.00
M 235.00 185.00 
C 237.53 185.21 240.46 190.46 242.00 192.00
C 250.73 199.46 258.29 208.62 267.00 216.00
C 261.87 224.22 253.08 231.14 246.00 238.00
C 240.38 243.62 235.03 249.85 229.00 255.00
C 210.23 271.04 194.04 285.66 168.93 288.93 C 143.81 292.19 115.30 286.22 96.25 269.75 C 77.19 253.28 64.36 233.08 63.00 208.00
C 62.11 202.54 62.48 196.34 63.00 191.00
C 63.00 182.33 65.09 171.94 68.32 164.32 C 71.55 156.70 74.87 149.19 79.92 142.92 C 84.97 136.65 90.05 131.25 95.75 125.75 C 101.45 120.26 107.42 115.61 112.75 109.75 C 118.08 103.89 123.98 98.65 129.70 93.70 C 135.41 88.75 141.09 78.83 147.25 85.75 C 153.40 92.68 157.15 95.86 163.25 101.75 C 169.35 107.64 177.27 113.62 170.25 120.25 C 163.22 126.88 159.53 130.31 153.25 136.25 C 146.97 142.18 142.42 146.70 136.75 152.75 C 131.09 158.80 125.41 162.72 120.25 169.25 C 115.09 175.77 111.88 184.48 111.01 193.01 C 110.13 201.54 111.96 212.58 115.92 220.08 C 119.89 227.57 125.11 232.04 132.23 236.77 C 139.35 241.50 151.28 242.44 160.00 242.00 C 168.72 241.56 176.71 236.92 183.25 232.25 C 189.78 227.57 195.15 221.79 200.75 216.75 C 206.36 211.71 211.76 204.07 217.25 200.25 C 222.73 196.43 228.64 184.47 235.00 185.00
M 246.00 161.00 
C 246.00 161.50 246.00 162.00 246.00 162.00
C 244.57 164.92 235.19 175.57 232.00 176.00
C 230.67 176.18 230.70 175.81 230.00 175.00
C 227.67 172.32 229.00 164.70 229.00 161.00
C 229.00 154.32 228.12 145.46 229.00 139.00 C 229.88 132.54 226.34 121.94 230.00 117.00
C 230.00 116.50 230.00 116.00 230.00 116.00
C 231.67 114.27 247.35 112.32 246.97 118.03 C 246.60 123.73 247.90 134.03 247.00 140.00 C 246.10 145.97 249.45 156.34 246.00 161.00
M 285.00 138.00 
C 284.63 142.90 283.77 147.47 282.00 152.00
C 297.38 146.96 309.70 135.02 325.00 130.00
C 309.73 149.82 286.72 166.08 266.00 180.00
C 267.85 169.21 271.82 158.98 273.00 148.00
C 266.64 149.12 261.32 153.50 255.00 155.00
C 262.53 143.85 275.29 136.46 285.00 127.00
C 289.13 126.30 285.48 135.03 285.00 138.00
M 218.00 136.00 
C 218.50 136.00 219.00 136.00 219.00 136.00
C 219.99 135.88 221.01 136.09 222.00 136.00
C 223.12 148.72 220.51 163.49 222.00 176.00 C 223.49 188.51 213.85 193.22 206.00 201.00
C 204.13 199.86 205.39 196.87 205.00 195.00
C 202.28 178.93 202.82 157.04 205.00 141.00
C 205.00 140.15 204.57 137.71 205.00 137.00
C 205.78 133.36 216.20 134.67 218.00 136.00
M 197.00 164.00 
C 197.63 175.68 196.16 190.65 197.00 202.00 C 197.84 213.35 188.11 218.91 180.00 224.00
C 180.00 204.00 180.00 184.00 180.00 164.00
C 185.67 164.00 191.33 164.00 197.00 164.00
M 264.00 181.00 
C 267.95 184.38 271.42 188.38 275.00 192.00
C 277.58 194.22 283.56 197.91 283.00 202.00
C 282.65 204.56 276.06 209.78 274.00 211.00
C 271.26 212.62 271.75 212.62 269.00 211.00
C 265.35 208.85 262.86 204.86 260.00 202.00
C 252.34 195.46 245.65 187.44 238.00 181.00
C 240.20 177.86 246.01 168.28 251.03 169.03 C 256.05 169.77 259.07 179.65 264.00 181.00
M 172.00 187.00 
C 175.64 190.64 172.56 204.67 173.00 210.00 C 173.44 215.33 174.95 228.59 171.00 232.00
C 167.68 234.87 161.07 233.94 157.00 235.00
C 156.76 235.06 156.33 236.01 156.00 236.00
C 152.37 235.94 154.12 224.74 154.00 221.00 C 153.88 217.26 153.66 206.83 154.00 203.00 C 154.34 199.17 152.40 188.18 155.26 186.26 C 158.11 184.33 170.32 185.32 172.00 187.00
M 147.00 201.00 
C 149.85 205.03 147.64 213.84 148.00 219.00 C 148.36 224.16 149.63 233.93 145.00 234.00
C 140.91 234.06 138.06 232.04 135.00 230.00
C 131.19 227.46 129.49 223.28 131.00 218.00 C 132.51 212.72 128.68 205.80 131.00 201.00
C 132.79 197.30 144.97 198.13 147.00 201.00 Z"/>
</g>
<g fill="#000000" fill-opacity="0.00" stroke="None">
<path d="
M 362.00 49.00 
L 362.00 0.00
L 313.00 0.00
C 336.59 4.65 357.42 25.29 362.00 49.00 Z"/>
</g>
<g fill="#010000" fill-opacity="1.00" stroke="None">
<path d="
M 220.00 57.00 
C 226.79 50.72 233.78 44.82 241.00 39.00
C 242.71 37.63 245.84 36.81 245.00 34.00
C 228.52 38.42 214.84 51.06 199.00 57.00
C 200.22 48.62 201.35 40.24 203.00 32.00
C 196.85 32.00 193.07 39.16 188.23 42.23 C 183.39 45.30 177.07 49.05 176.00 55.00
C 180.89 53.59 185.80 52.05 190.00 49.00
C 188.37 60.71 182.53 72.63 183.00 84.00
C 195.39 75.30 207.92 66.54 220.00 57.00 Z"/>
</g>
<g fill="#754F40" fill-opacity="1.00" stroke="None">
<path d="
M 220.00 57.00 
C 227.29 51.25 234.24 45.37 241.00 39.00
C 233.78 44.82 226.79 50.72 220.00 57.00 Z"/>
</g>
<g fill="#FF885A" fill-opacity="0.62" stroke="None">
<path d="
M 0.00 57.00 
C 1.71 55.74 1.47 51.33 0.00 50.00
L 0.00 57.00 Z"/>
</g>
<g fill="#000000" fill-opacity="1.00" stroke="None">
<path d="
M 187.00 93.00 
C 185.06 91.49 180.72 87.91 178.00 85.00
C 173.00 80.02 169.33 75.35 163.75 70.25 C 158.16 65.16 150.71 73.26 147.00 78.00
C 159.09 87.77 168.35 101.18 181.00 110.00
C 186.26 104.75 194.02 100.23 187.00 93.00 Z"/>
</g>
<g fill="#000000" fill-opacity="1.00" stroke="None">
<path d="
M 63.00 191.00 
C 63.00 196.64 62.69 202.37 63.00 208.00
C 64.36 233.08 77.19 253.28 96.25 269.75 C 115.30 286.22 143.81 292.19 168.93 288.93 C 194.04 285.66 210.23 271.04 229.00 255.00
C 234.62 249.38 239.97 243.15 246.00 238.00
C 253.08 231.14 261.87 224.22 267.00 216.00
C 258.29 208.62 250.73 199.46 242.00 192.00
C 239.55 189.91 236.63 187.81 235.00 185.00
C 228.64 184.47 222.73 196.43 217.25 200.25 C 211.76 204.07 206.36 211.71 200.75 216.75 C 195.15 221.79 189.78 227.57 183.25 232.25 C 176.71 236.92 168.72 241.56 160.00 242.00 C 151.28 242.44 139.35 241.50 132.23 236.77 C 125.11 232.04 119.89 227.57 115.92 220.08 C 111.96 212.58 110.13 201.54 111.01 193.01 C 111.88 184.48 115.09 175.77 120.25 169.25 C 125.41 162.72 131.09 158.80 136.75 152.75 C 142.42 146.70 146.97 142.18 153.25 136.25 C 159.53 130.31 163.22 126.88 170.25 120.25 C 177.27 113.62 169.35 107.64 163.25 101.75 C 157.15 95.86 153.40 92.68 147.25 85.75 C 141.09 78.83 135.41 88.75 129.70 93.70 C 123.98 98.65 118.08 103.89 112.75 109.75 C 107.42 115.61 101.45 120.26 95.75 125.75 C 90.05 131.25 84.97 136.65 79.92 142.92 C 74.87 149.19 71.55 156.70 68.32 164.32 C 65.09 171.94 63.00 182.33 63.00 191.00 Z"/>
</g>
<g fill="#463732" fill-opacity="1.00" stroke="None">
<path d="
M 187.00 93.00 
C 184.37 90.29 180.97 87.72 178.00 85.00
C 180.72 87.91 185.06 91.49 187.00 93.00 Z"/>
</g>
<g fill="#7A5445" fill-opacity="1.00" stroke="None">
<path d="
M 230.00 116.00 
C 235.29 115.52 240.70 116.36 246.00 116.00
C 246.00 131.00 246.00 146.00 246.00 161.00
C 249.45 156.34 246.10 145.97 247.00 140.00 C 247.90 134.03 246.60 123.73 246.97 118.03 C 247.35 112.32 231.67 114.27 230.00 116.00 Z"/>
</g>
<g fill="#000000" fill-opacity="1.00" stroke="None">
<path d="
M 230.00 117.00 
C 230.00 131.67 230.00 146.33 230.00 161.00
C 230.00 164.73 228.64 171.58 230.00 175.00
C 230.70 175.81 230.67 176.18 232.00 176.00
C 236.48 174.48 241.80 164.93 246.00 162.00
C 246.00 162.00 246.00 161.50 246.00 161.00
C 246.00 146.00 246.00 131.00 246.00 116.00
C 240.70 116.36 235.29 115.52 230.00 116.00
C 230.00 116.00 230.00 116.50 230.00 117.00 Z"/>
</g>
<g fill="#8A6555" fill-opacity="1.00" stroke="None">
<path d="
M 229.00 161.00 
C 229.00 160.96 230.00 161.00 230.00 161.00
C 230.00 146.33 230.00 131.67 230.00 117.00
C 226.34 121.94 229.88 132.54 229.00 139.00 C 228.12 145.46 229.00 154.32 229.00 161.00 Z"/>
</g>
<g fill="#8F5B47" fill-opacity="1.00" stroke="None">
<path d="
M 285.00 127.00 
C 286.19 129.81 285.28 134.34 285.00 138.00
C 285.48 135.03 289.13 126.30 285.00 127.00 Z"/>
</g>
<g fill="#000000" fill-opacity="1.00" stroke="None">
<path d="
M 285.00 138.00 
C 285.28 134.34 286.19 129.81 285.00 127.00
C 275.29 136.46 262.53 143.85 255.00 155.00
C 261.32 153.50 266.64 149.12 273.00 148.00
C 271.82 158.98 267.85 169.21 266.00 180.00
C 286.72 166.08 309.73 149.82 325.00 130.00
C 309.70 135.02 297.38 146.96 282.00 152.00
C 283.77 147.47 284.63 142.90 285.00 138.00 Z"/>
</g>
<g fill="#AD694E" fill-opacity="1.00" stroke="None">
<path d="
M 205.00 137.00 
C 205.13 136.78 206.00 137.00 206.00 137.00
C 208.70 135.00 214.45 136.00 218.00 136.00
C 216.20 134.67 205.78 133.36 205.00 137.00 Z"/>
</g>
<g fill="#3A3431" fill-opacity="1.00" stroke="None">
<path d="
M 206.00 137.00 
C 209.32 137.00 216.79 138.30 219.00 136.00
C 219.00 136.00 218.50 136.00 218.00 136.00
C 214.45 136.00 208.70 135.00 206.00 137.00 Z"/>
</g>
<g fill="#000000" fill-opacity="1.00" stroke="None">
<path d="
M 206.00 137.00 
C 206.00 137.00 205.13 136.78 205.00 137.00
C 204.57 137.71 205.00 140.15 205.00 141.00
C 205.00 158.89 203.93 177.15 205.00 195.00
C 205.39 196.87 204.13 199.86 206.00 201.00
C 213.85 193.22 223.49 188.51 222.00 176.00 C 220.51 163.49 223.12 148.72 222.00 136.00
C 221.01 136.09 219.99 135.88 219.00 136.00
C 216.79 138.30 209.32 137.00 206.00 137.00 Z"/>
</g>
<g fill="#745B52" fill-opacity="1.00" stroke="None">
<path d="
M 205.00 195.00 
C 203.93 177.15 205.00 158.89 205.00 141.00
C 202.82 157.04 202.28 178.93 205.00 195.00 Z"/>
</g>
<g fill="#604C43" fill-opacity="1.00" stroke="None">
<path d="
M 230.00 175.00 
C 228.64 171.58 230.00 164.73 230.00 161.00
C 230.00 161.00 229.00 160.96 229.00 161.00
C 229.00 164.70 227.67 172.32 230.00 175.00 Z"/>
</g>
<g fill="#78584B" fill-opacity="1.00" stroke="None">
<path d="
M 232.00 176.00 
C 235.19 175.57 244.57 164.92 246.00 162.00
C 241.80 164.93 236.48 174.48 232.00 176.00 Z"/>
</g>
<g fill="#000000" fill-opacity="1.00" stroke="None">
<path d="
M 197.00 164.00 
C 191.33 164.00 185.67 164.00 180.00 164.00
C 180.00 184.00 180.00 204.00 180.00 224.00
C 188.11 218.91 197.84 213.35 197.00 202.00 C 196.16 190.65 197.63 175.68 197.00 164.00 Z"/>
</g>
<g fill="#000000" fill-opacity="1.00" stroke="None">
<path d="
M 260.00 202.00 
C 263.00 204.57 265.96 208.83 269.00 211.00
C 271.75 212.62 271.26 212.62 274.00 211.00
C 275.22 210.12 282.77 203.06 283.00 202.00
C 283.56 197.91 277.58 194.22 275.00 192.00
C 271.07 188.61 267.60 184.60 264.00 181.00
C 259.07 179.65 256.05 169.77 251.03 169.03 C 246.01 168.28 240.20 177.86 238.00 181.00
C 245.65 187.44 252.34 195.46 260.00 202.00 Z"/>
</g>
<g fill="#836053" fill-opacity="1.00" stroke="None">
<path d="
M 275.00 192.00 
C 271.42 188.38 267.95 184.38 264.00 181.00
C 267.60 184.60 271.07 188.61 275.00 192.00 Z"/>
</g>
<g fill="#784F3F" fill-opacity="1.00" stroke="None">
<path d="
M 242.00 192.00 
C 240.46 190.46 237.53 185.21 235.00 185.00
C 236.63 187.81 239.55 189.91 242.00 192.00 Z"/>
</g>
<g fill="#CE724E" fill-opacity="1.00" stroke="None">
<path d="
M 156.00 236.00 
C 153.19 234.01 155.51 227.26 155.00 224.00 C 154.49 220.74 155.00 214.53 155.00 211.00
C 155.00 207.56 154.49 202.25 155.00 199.00 C 155.51 195.75 153.32 188.88 156.00 187.00
C 159.58 184.49 167.98 188.88 172.00 187.00
C 170.32 185.32 158.11 184.33 155.26 186.26 C 152.40 188.18 154.34 199.17 154.00 203.00 C 153.66 206.83 153.88 217.26 154.00 221.00 C 154.12 224.74 152.37 235.94 156.00 236.00 Z"/>
</g>
<g fill="#524A47" fill-opacity="1.00" stroke="None">
<path d="
M 155.00 211.00 
C 155.00 210.96 156.00 211.00 156.00 211.00
C 156.00 203.00 156.00 195.00 156.00 187.00
C 153.32 188.88 155.51 195.75 155.00 199.00 C 154.49 202.25 155.00 207.56 155.00 211.00 Z"/>
</g>
<g fill="#000000" fill-opacity="1.00" stroke="None">
<path d="
M 156.00 211.00 
C 156.00 218.72 154.95 228.14 157.00 235.00
C 161.07 233.94 167.68 234.87 171.00 232.00
C 175.26 226.87 170.54 216.50 172.00 210.00 C 173.46 203.50 170.91 193.79 172.00 187.00
C 167.98 188.88 159.58 184.49 156.00 187.00
C 156.00 195.00 156.00 203.00 156.00 211.00 Z"/>
</g>
<g fill="#755244" fill-opacity="1.00" stroke="None">
<path d="
M 171.00 232.00 
C 174.95 228.59 173.44 215.33 173.00 210.00 C 172.56 204.67 175.64 190.64 172.00 187.00
C 170.91 193.79 173.46 203.50 172.00 210.00 C 170.54 216.50 175.26 226.87 171.00 232.00 Z"/>
</g>
<g fill="#5B4C45" fill-opacity="1.00" stroke="None">
<path d="
M 63.00 208.00 
C 62.69 202.37 63.00 196.64 63.00 191.00
C 62.48 196.34 62.11 202.54 63.00 208.00 Z"/>
</g>
<g fill="#000000" fill-opacity="1.00" stroke="None">
<path d="
M 131.00 201.00 
C 129.76 204.05 133.34 211.44 132.00 216.00 C 130.66 220.56 131.78 227.16 135.00 230.00
C 138.06 232.04 140.91 234.06 145.00 234.00
C 148.28 232.65 147.66 223.25 147.00 219.00 C 146.34 214.75 148.93 204.99 147.00 201.00
C 144.97 198.13 132.79 197.30 131.00 201.00 Z"/>
</g>
<g fill="#35302F" fill-opacity="1.00" stroke="None">
<path d="
M 135.00 230.00 
C 131.78 227.16 130.66 220.56 132.00 216.00 C 133.34 211.44 129.76 204.05 131.00 201.00
C 128.68 205.80 132.51 212.72 131.00 218.00 C 129.49 223.28 131.19 227.46 135.00 230.00 Z"/>
</g>
<g fill="#66524A" fill-opacity="1.00" stroke="None">
<path d="
M 145.00 234.00 
C 149.63 233.93 148.36 224.16 148.00 219.00 C 147.64 213.84 149.85 205.03 147.00 201.00
C 148.93 204.99 146.34 214.75 147.00 219.00 C 147.66 223.25 148.28 232.65 145.00 234.00 Z"/>
</g>
<g fill="#66554E" fill-opacity="1.00" stroke="None">
<path d="
M 269.00 211.00 
C 265.96 208.83 263.00 204.57 260.00 202.00
C 262.86 204.86 265.35 208.85 269.00 211.00 Z"/>
</g>
<g fill="#5D4E47" fill-opacity="1.00" stroke="None">
<path d="
M 274.00 211.00 
C 276.06 209.78 282.65 204.56 283.00 202.00
C 282.77 203.06 275.22 210.12 274.00 211.00 Z"/>
</g>
<g fill="#755D54" fill-opacity="1.00" stroke="None">
<path d="
M 156.00 236.00 
C 156.33 236.01 156.76 235.06 157.00 235.00
C 154.95 228.14 156.00 218.72 156.00 211.00
C 156.00 211.00 155.00 210.96 155.00 211.00
C 155.00 214.53 154.49 220.74 155.00 224.00 C 155.51 227.26 153.19 234.01 156.00 236.00 Z"/>
</g>
<g fill="#96624E" fill-opacity="1.00" stroke="None">
<path d="
M 229.00 255.00 
C 235.03 249.85 240.38 243.62 246.00 238.00
C 239.97 243.15 234.62 249.38 229.00 255.00 Z"/>
</g>
<g fill="#000000" fill-opacity="0.00" stroke="None">
<path d="
M 0.00 331.00 
L 49.00 331.00
C 25.41 326.36 4.58 305.71 0.00 282.00
L 0.00 331.00 Z"/>
</g>
<g fill="#000000" fill-opacity="0.00" stroke="None">
<path d="
M 313.00 331.00 
L 362.00 331.00
L 362.00 282.00
C 357.42 305.63 336.70 326.41 313.00 331.00 Z"/>
</g>
</svg>